<svg width="50" height="50" viewBox="0 0 50 50" fill="none" xmlns="http://www.w3.org/2000/svg">
<rect width="50" height="50" rx="12" fill="#FAC153" fill-opacity="0.1"/>
<path d="M37.063 21.8849L34.7297 20.7183C34.298 20.5083 33.7613 20.6716 33.5513 21.1033C33.3297 21.5466 33.5047 22.0716 33.9363 22.2816L35.7913 23.2033V28.7916L31.4163 28.8033V16.8333C31.4163 14.4999 29.853 13.3333 27.9163 13.3333H18.583C16.6463 13.3333 15.083 14.4999 15.083 16.8333V35.7916H13.333C12.8547 35.7916 12.458 36.1883 12.458 36.6666C12.458 37.1449 12.8547 37.5416 13.333 37.5416H33.1663C33.6447 37.5416 34.0413 37.1449 34.0413 36.6666C34.0413 36.1883 33.6447 35.7916 33.1663 35.7916H31.4163V30.5533L36.6663 30.5416C37.1563 30.5416 37.5413 30.1449 37.5413 29.6666V22.6666C37.5413 22.3399 37.3547 22.0366 37.063 21.8849ZM17.9997 19.0383C17.9997 17.4166 18.9913 16.8333 20.2047 16.8333H26.3063C27.508 16.8333 28.4997 17.4166 28.4997 19.0383V20.4733C28.4997 22.0833 27.508 22.6666 26.2947 22.6666H20.2047C18.9913 22.6666 17.9997 22.0833 17.9997 20.4616V19.0383ZM18.583 25.2916H22.083C22.5613 25.2916 22.958 25.6883 22.958 26.1666C22.958 26.6449 22.5613 27.0416 22.083 27.0416H18.583C18.1047 27.0416 17.708 26.6449 17.708 26.1666C17.708 25.6883 18.1047 25.2916 18.583 25.2916Z" fill="#FAC153"/>
</svg>
