<svg width="50" height="50" viewBox="0 0 50 50" fill="none" xmlns="http://www.w3.org/2000/svg">
<rect width="50" height="50" rx="12" fill="#ED0677" fill-opacity="0.1"/>
<path d="M34.3337 24.9999V31.9999C34.3337 34.5783 32.2453 36.6666 29.667 36.6666H20.3337C17.7553 36.6666 15.667 34.5783 15.667 31.9999V24.9999C15.667 24.3583 16.192 23.8333 16.8337 23.8333H19.132C19.7737 23.8333 20.2987 24.3583 20.2987 24.9999V28.6633C20.2987 29.5266 20.777 30.3199 21.5353 30.7283C21.8737 30.9149 22.247 31.0083 22.632 31.0083C23.0753 31.0083 23.5187 30.8799 23.9037 30.6233L25.012 29.8999L26.0387 30.5883C26.7503 31.0666 27.6603 31.1249 28.4187 30.7166C29.1887 30.3083 29.667 29.5266 29.667 28.6516V24.9999C29.667 24.3583 30.192 23.8333 30.8337 23.8333H33.167C33.8087 23.8333 34.3337 24.3583 34.3337 24.9999Z" fill="#ED0677"/>
<path d="M36.0837 19.1666V20.3333C36.0837 21.6166 35.4653 22.6666 33.7503 22.6666H16.2503C14.4653 22.6666 13.917 21.6166 13.917 20.3333V19.1666C13.917 17.8833 14.4653 16.8333 16.2503 16.8333H33.7503C35.4653 16.8333 36.0837 17.8833 36.0837 19.1666Z" fill="#ED0677"/>
<path d="M24.5796 16.8333H18.1396C17.7429 16.4016 17.7546 15.7366 18.1746 15.3166L19.8313 13.6599C20.2629 13.2283 20.9746 13.2283 21.4063 13.6599L24.5796 16.8333Z" fill="#ED0677"/>
<path d="M31.8482 16.8333H25.4082L28.5815 13.6599C29.0132 13.2283 29.7249 13.2283 30.1565 13.6599L31.8132 15.3166C32.2332 15.7366 32.2449 16.4016 31.8482 16.8333Z" fill="#ED0677"/>
<path d="M27.299 23.8333C27.9407 23.8333 28.4657 24.3583 28.4657 24.9999V28.6516C28.4657 29.5849 27.4273 30.1449 26.6573 29.6199L25.6073 28.9199C25.2223 28.6633 24.7207 28.6633 24.324 28.9199L23.2273 29.6433C22.4573 30.1566 21.4307 29.5966 21.4307 28.6749V24.9999C21.4307 24.3583 21.9557 23.8333 22.5973 23.8333H27.299Z" fill="#ED0677"/>
</svg>
