<svg width="28" height="28" viewBox="0 0 28 28" fill="none" xmlns="http://www.w3.org/2000/svg">
<path d="M22.2606 18.3402C21.5723 14.2219 17.6173 10.8735 13.4406 10.8735C8.90232 10.8735 4.91231 14.5485 4.52731 19.0752C4.37565 20.8252 4.93565 22.4819 6.09065 23.7302C7.23398 24.9785 8.84398 25.6669 10.594 25.6669H16.054C18.0256 25.6669 19.7523 24.8969 20.9306 23.5085C22.109 22.1202 22.5756 20.2769 22.2606 18.3402Z" fill="#51D0EC"/>
<path d="M11.9926 9.16992C13.8804 9.16992 15.4109 7.63948 15.4109 5.75159C15.4109 3.86369 13.8804 2.33325 11.9926 2.33325C10.1047 2.33325 8.57422 3.86369 8.57422 5.75159C8.57422 7.63948 10.1047 9.16992 11.9926 9.16992Z" fill="#51D0EC"/>
<path d="M19.7637 10.5349C21.3358 10.5349 22.6103 9.26039 22.6103 7.68822C22.6103 6.11605 21.3358 4.84155 19.7637 4.84155C18.1915 4.84155 16.917 6.11605 16.917 7.68822C16.917 9.26039 18.1915 10.5349 19.7637 10.5349Z" fill="#51D0EC"/>
<path d="M23.9742 15.0852C25.2307 15.0852 26.2492 14.0666 26.2492 12.8102C26.2492 11.5537 25.2307 10.5352 23.9742 10.5352C22.7178 10.5352 21.6992 11.5537 21.6992 12.8102C21.6992 14.0666 22.7178 15.0852 23.9742 15.0852Z" fill="#51D0EC"/>
<path d="M4.59667 12.81C6.16884 12.81 7.44333 11.5355 7.44333 9.96337C7.44333 8.3912 6.16884 7.1167 4.59667 7.1167C3.0245 7.1167 1.75 8.3912 1.75 9.96337C1.75 11.5355 3.0245 12.81 4.59667 12.81Z" fill="#51D0EC"/>
</svg>
