<svg width="50" height="50" viewBox="0 0 50 50" fill="none" xmlns="http://www.w3.org/2000/svg">
<rect width="50" height="50" rx="12" fill="#3B38EB" fill-opacity="0.1"/>
<path d="M34.2983 13.0417H30.8683C29.3867 13.0417 28.5 13.9284 28.5 15.4101V18.8401C28.5 20.3217 29.3867 21.2084 30.8683 21.2084H34.2983C35.78 21.2084 36.6667 20.3217 36.6667 18.8401V15.4101C36.6667 13.9284 35.78 13.0417 34.2983 13.0417ZM34.555 16.9034C34.415 17.0434 34.2283 17.1134 34.0417 17.1134C33.855 17.1134 33.6683 17.0434 33.5283 16.9034L33.3183 16.6934V19.3067C33.3183 19.7151 32.9917 20.0417 32.5833 20.0417C32.175 20.0417 31.8483 19.7151 31.8483 19.3067V16.6934L31.6383 16.9034C31.3583 17.1834 30.8917 17.1834 30.6117 16.9034C30.3317 16.6234 30.3317 16.1567 30.6117 15.8767L32.07 14.4184C32.1283 14.3601 32.21 14.3134 32.2917 14.2784C32.315 14.2667 32.3383 14.2667 32.3617 14.2551C32.42 14.2317 32.4783 14.2201 32.5483 14.2201C32.5717 14.2201 32.595 14.2201 32.6183 14.2201C32.7 14.2201 32.77 14.2317 32.8517 14.2667C32.8633 14.2667 32.8633 14.2667 32.875 14.2667C32.9567 14.3017 33.0267 14.3484 33.085 14.4067C33.0967 14.4184 33.0967 14.4184 33.1083 14.4184L34.5667 15.8767C34.8467 16.1567 34.8467 16.6234 34.555 16.9034Z" fill="#3B38EB"/>
<path d="M13.333 24.3699V30.2033C13.333 32.8749 15.4913 35.0333 18.163 35.0333H31.8247C34.4963 35.0333 36.6663 32.8633 36.6663 30.1916V24.3699C36.6663 23.5883 36.0363 22.9583 35.2547 22.9583H14.7447C13.963 22.9583 13.333 23.5883 13.333 24.3699ZM20.333 31.1249H17.9997C17.5213 31.1249 17.1247 30.7283 17.1247 30.2499C17.1247 29.7716 17.5213 29.3749 17.9997 29.3749H20.333C20.8113 29.3749 21.208 29.7716 21.208 30.2499C21.208 30.7283 20.8113 31.1249 20.333 31.1249ZM27.9163 31.1249H23.2497C22.7713 31.1249 22.3747 30.7283 22.3747 30.2499C22.3747 29.7716 22.7713 29.3749 23.2497 29.3749H27.9163C28.3947 29.3749 28.7913 29.7716 28.7913 30.2499C28.7913 30.7283 28.3947 31.1249 27.9163 31.1249Z" fill="#3B38EB"/>
<path d="M26.7497 16.3782V19.7966C26.7497 20.5782 26.1197 21.2082 25.338 21.2082H14.7447C13.9513 21.2082 13.333 20.5549 13.333 19.7732C13.3447 18.4549 13.8697 17.2532 14.7447 16.3782C15.6197 15.5032 16.833 14.9666 18.163 14.9666H25.338C26.1197 14.9666 26.7497 15.5966 26.7497 16.3782Z" fill="#3B38EB"/>
</svg>
