<svg width="50" height="50" viewBox="0 0 50 50" fill="none" xmlns="http://www.w3.org/2000/svg">
<rect width="50" height="50" rx="12" fill="#1ED760" fill-opacity="0.1"/>
<path d="M24.9997 13.3333C18.5597 13.3333 13.333 18.5599 13.333 24.9999C13.333 31.4399 18.5597 36.6666 24.9997 36.6666C31.4397 36.6666 36.6663 31.4399 36.6663 24.9999C36.6663 18.5599 31.4397 13.3333 24.9997 13.3333ZM28.9897 30.3432C28.8147 30.5882 28.5463 30.7049 28.278 30.7049C28.103 30.7049 27.928 30.6466 27.7647 30.5416C25.968 29.2583 23.6697 28.9783 21.6163 29.7833C21.173 29.9583 20.6597 29.7366 20.4847 29.2932C20.3097 28.8382 20.5313 28.3366 20.9747 28.1616C23.588 27.1232 26.5047 27.4849 28.7797 29.1183C29.188 29.4099 29.2697 29.9582 28.9897 30.3432ZM30.273 27.0883C30.098 27.3333 29.8297 27.4499 29.5613 27.4499C29.3863 27.4499 29.2113 27.3916 29.048 27.2866C26.5747 25.5132 23.413 25.1283 20.578 26.2483C20.1347 26.4233 19.6213 26.2016 19.4463 25.7582C19.2713 25.3032 19.493 24.8016 19.9363 24.6266C23.3197 23.2849 27.1113 23.7516 30.063 25.8749C30.4597 26.1549 30.553 26.7033 30.273 27.0883ZM32.1047 23.9616C31.9297 24.2066 31.6613 24.3233 31.393 24.3233C31.218 24.3233 31.043 24.2649 30.8797 24.1599C27.403 21.6633 22.9463 21.1149 18.9797 22.7016C18.5247 22.8766 18.023 22.6549 17.848 22.2116C17.673 21.7682 17.8947 21.2549 18.338 21.0799C22.8647 19.2833 27.9397 19.9016 31.9063 22.7483C32.303 23.0166 32.3963 23.5649 32.1047 23.9616Z" fill="#1ED760"/>
</svg>
