<svg width="50" height="50" viewBox="0 0 50 50" fill="none" xmlns="http://www.w3.org/2000/svg">
<rect width="50" height="50" rx="12" fill="#7B61FF" fill-opacity="0.1"/>
<path d="M33.4463 17.5101H32.9797L29.0363 13.5668C28.7213 13.2518 28.208 13.2518 27.8813 13.5668C27.5663 13.8818 27.5663 14.3951 27.8813 14.7218L30.6697 17.5101H19.3297L22.118 14.7218C22.433 14.4068 22.433 13.8935 22.118 13.5668C21.803 13.2518 21.2897 13.2518 20.963 13.5668L17.0313 17.5101H16.5647C15.5147 17.5101 13.333 17.5102 13.333 20.4968C13.333 21.6285 13.5663 22.3751 14.0563 22.8652C14.3363 23.1568 14.6747 23.3085 15.0363 23.3902C15.3747 23.4718 15.7363 23.4835 16.0863 23.4835H33.913C34.2747 23.4835 34.613 23.4601 34.9397 23.3902C35.9197 23.1568 36.6663 22.4568 36.6663 20.4968C36.6663 17.5102 34.4847 17.5101 33.4463 17.5101Z" fill="#7B61FF"/>
<path d="M33.2717 25H16.7283C16.005 25 15.4566 25.6417 15.5733 26.3533L16.5533 32.35C16.88 34.3567 17.755 36.6667 21.64 36.6667H28.185C32.1166 36.6667 32.8167 34.695 33.2367 32.49L34.415 26.3883C34.555 25.665 34.0067 25 33.2717 25ZM28.36 29.725L24.5683 33.225C24.405 33.3767 24.195 33.4583 23.9733 33.4583C23.7516 33.4583 23.53 33.3767 23.355 33.2017L21.605 31.4517C21.2666 31.1133 21.2666 30.5533 21.605 30.215C21.955 29.8767 22.5033 29.8767 22.8533 30.215L24.0083 31.37L27.1817 28.4417C27.5317 28.115 28.0917 28.1383 28.4183 28.4883C28.745 28.85 28.7217 29.3983 28.36 29.725Z" fill="#7B61FF"/>
</svg>
