<svg width="327" height="80" viewBox="0 0 327 80" fill="none" xmlns="http://www.w3.org/2000/svg">
<mask id="path-1-inside-1_2051_280" fill="white">
<path fill-rule="evenodd" clip-rule="evenodd" d="M188.507 20.1195C195.629 12.8717 204.135 4.21503 226 0H303C316.255 0 327 10.7452 327 24V56C327 69.2548 316.255 80 303 80H24C10.7452 80 0 69.2548 0 56V24C0 10.7452 10.7452 0 24 0H102C122.794 3.73232 132.155 12.5818 140.034 20.0307C146.932 26.5522 152.694 32 164 32C176.833 32 182.112 26.6278 188.507 20.1195Z"/>
</mask>
<path fill-rule="evenodd" clip-rule="evenodd" d="M188.507 20.1195C195.629 12.8717 204.135 4.21503 226 0H303C316.255 0 327 10.7452 327 24V56C327 69.2548 316.255 80 303 80H24C10.7452 80 0 69.2548 0 56V24C0 10.7452 10.7452 0 24 0H102C122.794 3.73232 132.155 12.5818 140.034 20.0307C146.932 26.5522 152.694 32 164 32C176.833 32 182.112 26.6278 188.507 20.1195Z" fill="white"/>
<path d="M226 0V-1H225.904L225.811 -0.981922L226 0ZM188.507 20.1195L189.22 20.8203L188.507 20.1195ZM102 0L102.177 -0.984271L102.089 -1H102V0ZM140.034 20.0307L140.721 19.304L140.034 20.0307ZM225.811 -0.981922C214.772 1.14608 207.061 4.40481 201.194 8.07468C195.334 11.7407 191.355 15.7946 187.794 19.4186L189.22 20.8203C192.781 17.1965 196.615 13.2982 202.255 9.77023C207.888 6.24607 215.363 3.06895 226.189 0.981922L225.811 -0.981922ZM226 1H303V-1H226V1ZM303 1C315.703 1 326 11.2975 326 24H328C328 10.1929 316.807 -1 303 -1V1ZM326 24V56H328V24H326ZM326 56C326 68.7025 315.703 79 303 79V81C316.807 81 328 69.8071 328 56H326ZM303 79H24V81H303V79ZM24 79C11.2974 79 1 68.7025 1 56H-1C-1 69.8071 10.1929 81 24 81V79ZM1 56V24H-1V56H1ZM1 24C1 11.2975 11.2975 1 24 1V-1C10.1929 -1 -1 10.1929 -1 24H1ZM24 1H102V-1H24V1ZM140.721 19.304C132.792 11.8079 123.257 2.7994 102.177 -0.984271L101.823 0.984271C122.332 4.66523 131.518 13.3558 139.347 20.7573L140.721 19.304ZM164 31C153.125 31 147.62 25.8269 140.721 19.304L139.347 20.7573C146.244 27.2775 152.264 33 164 33V31ZM187.794 19.4186C184.58 22.6896 181.753 25.5576 178.167 27.635C174.614 29.6931 170.263 31 164 31V33C170.571 33 175.276 31.6208 179.169 29.3657C183.029 27.1299 186.039 24.0577 189.22 20.8203L187.794 19.4186Z" fill="#F1F5F9" mask="url(#path-1-inside-1_2051_280)"/>
</svg>
