<svg width="25" height="24" viewBox="0 0 25 24" fill="none" xmlns="http://www.w3.org/2000/svg">
<path d="M15.845 6.55005H6.405C6.125 6.55005 5.865 6.56005 5.625 6.57005C3.255 6.71005 2.625 7.58005 2.625 10.28V10.86C2.625 11.41 3.075 11.86 3.625 11.86H18.625C19.175 11.86 19.625 11.41 19.625 10.86V10.28C19.625 7.30005 18.865 6.55005 15.845 6.55005Z" fill="#F1F5F9"/>
<path d="M3.625 13.3601C3.075 13.3601 2.625 13.8101 2.625 14.3601V17.2701C2.625 20.2501 3.385 21.0001 6.405 21.0001H15.845C18.815 21.0001 19.595 20.2801 19.625 17.4301V14.3601C19.625 13.8101 19.175 13.3601 18.625 13.3601H3.625ZM7.585 18.5601H5.875C5.465 18.5601 5.125 18.2201 5.125 17.8101C5.125 17.4001 5.465 17.0601 5.875 17.0601H7.595C8.005 17.0601 8.345 17.4001 8.345 17.8101C8.345 18.2201 8.005 18.5601 7.585 18.5601ZM13.175 18.5601H9.735C9.325 18.5601 8.985 18.2201 8.985 17.8101C8.985 17.4001 9.325 17.0601 9.735 17.0601H13.175C13.585 17.0601 13.925 17.4001 13.925 17.8101C13.925 18.2201 13.595 18.5601 13.175 18.5601Z" fill="#F1F5F9"/>
<path d="M22.6251 13.3301V8.0901C22.6251 4.9601 20.8351 3.6001 18.1351 3.6001H9.20511C8.44511 3.6001 7.76511 3.7101 7.16511 3.9401C6.69511 4.1101 6.27511 4.3601 5.93511 4.6901C5.75511 4.8601 5.89511 5.1401 6.15511 5.1401H17.0251C19.2751 5.1401 21.0951 6.9601 21.0951 9.2101V16.3801C21.0951 16.6301 21.3651 16.7701 21.5451 16.5901C22.2351 15.8601 22.6251 14.7901 22.6251 13.3301Z" fill="#F1F5F9"/>
</svg>
