<svg width="25" height="24" viewBox="0 0 25 24" fill="none" xmlns="http://www.w3.org/2000/svg">
<path d="M22.875 8.52V3.98C22.875 2.57 22.235 2 20.645 2H16.605C15.015 2 14.375 2.57 14.375 3.98V8.51C14.375 9.93 15.015 10.49 16.605 10.49H20.645C22.235 10.5 22.875 9.93 22.875 8.52Z" fill="#F1F5F9"/>
<path d="M22.875 19.77V15.73C22.875 14.14 22.235 13.5 20.645 13.5H16.605C15.015 13.5 14.375 14.14 14.375 15.73V19.77C14.375 21.36 15.015 22 16.605 22H20.645C22.235 22 22.875 21.36 22.875 19.77Z" fill="#F1F5F9"/>
<path d="M11.375 8.52V3.98C11.375 2.57 10.735 2 9.145 2H5.105C3.515 2 2.875 2.57 2.875 3.98V8.51C2.875 9.93 3.515 10.49 5.105 10.49H9.145C10.735 10.5 11.375 9.93 11.375 8.52Z" fill="#F1F5F9"/>
<path d="M11.375 19.77V15.73C11.375 14.14 10.735 13.5 9.145 13.5H5.105C3.515 13.5 2.875 14.14 2.875 15.73V19.77C2.875 21.36 3.515 22 5.105 22H9.145C10.735 22 11.375 21.36 11.375 19.77Z" fill="#F1F5F9"/>
</svg>
