<svg width="25" height="24" viewBox="0 0 25 24" fill="none" xmlns="http://www.w3.org/2000/svg">
<path d="M16.2651 2.96004L7.23512 5.96004C1.16512 7.99004 1.16512 11.3 7.23512 13.32L9.91512 14.21L10.8051 16.89C12.8251 22.96 16.1451 22.96 18.1651 16.89L21.1751 7.87004C22.5151 3.82004 20.3151 1.61004 16.2651 2.96004ZM16.5851 8.34004L12.7851 12.16C12.6351 12.31 12.4451 12.38 12.2551 12.38C12.0651 12.38 11.8751 12.31 11.7251 12.16C11.4351 11.87 11.4351 11.39 11.7251 11.1L15.5251 7.28004C15.8151 6.99004 16.2951 6.99004 16.5851 7.28004C16.8751 7.57004 16.8751 8.05004 16.5851 8.34004Z" fill="#F1F5F9"/>
</svg>
