<svg width="24" height="18" viewBox="0 0 24 18" fill="none" xmlns="http://www.w3.org/2000/svg">
<g clip-path="url(#clip0_146_6530)">
<g clip-path="url(#clip1_146_6530)">
<rect x="0.625" y="0.5" width="23.375" height="17" rx="2.125" fill="white"/>
<path fill-rule="evenodd" clip-rule="evenodd" d="M0.625 0.5H10.6429V8.43333H0.625V0.5Z" fill="#1A47B8"/>
<path fill-rule="evenodd" clip-rule="evenodd" d="M10.6429 0.5V1.63333H24V0.5H10.6429ZM10.6429 2.76667V3.9H24V2.76667H10.6429ZM10.6429 5.03333V6.16667H24V5.03333H10.6429ZM10.6429 7.3V8.43333H24V7.3H10.6429ZM0.625 9.56667V10.7H24V9.56667H0.625ZM0.625 11.8333V12.9667H24V11.8333H0.625ZM0.625 14.1V15.2333H24V14.1H0.625ZM0.625 16.3667V17.5H24V16.3667H0.625Z" fill="#F93939"/>
<path fill-rule="evenodd" clip-rule="evenodd" d="M1.73828 1.6333V2.76663H2.85138V1.6333H1.73828ZM3.96447 1.6333V2.76663H5.07757V1.6333H3.96447ZM6.19066 1.6333V2.76663H7.30376V1.6333H6.19066ZM8.41685 1.6333V2.76663H9.52995V1.6333H8.41685ZM7.30376 2.76663V3.89997H8.41685V2.76663H7.30376ZM5.07757 2.76663V3.89997H6.19066V2.76663H5.07757ZM2.85138 2.76663V3.89997H3.96447V2.76663H2.85138ZM1.73828 3.89997V5.0333H2.85138V3.89997H1.73828ZM3.96447 3.89997V5.0333H5.07757V3.89997H3.96447ZM6.19066 3.89997V5.0333H7.30376V3.89997H6.19066ZM8.41685 3.89997V5.0333H9.52995V3.89997H8.41685ZM1.73828 6.16663V7.29997H2.85138V6.16663H1.73828ZM3.96447 6.16663V7.29997H5.07757V6.16663H3.96447ZM6.19066 6.16663V7.29997H7.30376V6.16663H6.19066ZM8.41685 6.16663V7.29997H9.52995V6.16663H8.41685ZM7.30376 5.0333V6.16663H8.41685V5.0333H7.30376ZM5.07757 5.0333V6.16663H6.19066V5.0333H5.07757ZM2.85138 5.0333V6.16663H3.96447V5.0333H2.85138Z" fill="white"/>
</g>
</g>
<defs>
<clipPath id="clip0_146_6530">
<rect width="23.375" height="17" fill="white" transform="translate(0.625 0.5)"/>
</clipPath>
<clipPath id="clip1_146_6530">
<rect x="0.625" y="0.5" width="23.375" height="17" rx="2.125" fill="white"/>
</clipPath>
</defs>
</svg>
