<svg width="21" height="27" viewBox="0 0 21 27" fill="none" xmlns="http://www.w3.org/2000/svg">
<path d="M19.5583 0.0120792C19.6036 1.48011 18.8643 2.43069 18.0312 3.10082C18.7408 4.6277 19.5705 5.99606 20.0296 7.47946C21.3691 11.8067 19.2482 16.663 15.1956 18.8833C11.1459 21.1021 5.92617 20.2663 2.95698 16.8623C0.103367 13.5912 -0.547411 9.85858 1.23315 5.91733C3.00364 1.99914 6.23632 0.0743736 10.5341 0.0195015C13.5136 -0.0184053 16.4942 0.0120792 19.5586 0.0120792H19.5583ZM10.326 16.3075C13.7838 16.3234 16.5828 13.5504 16.5971 10.0948C16.6114 6.61317 13.8373 3.84571 10.3032 3.81628C6.97192 3.78845 4.1085 6.66009 4.09975 10.038C4.09074 13.4905 6.87252 16.2916 10.3263 16.3075H10.326Z" fill="#3B38EB"/>
<path d="M17.6641 21.3221C18.2785 22.2075 18.8657 23.0531 19.4494 23.894C19.5509 24.0403 19.5173 24.2428 19.3712 24.3443C14.4314 27.7801 6.71536 27.9778 1.34664 24.378C1.20137 24.2807 1.16241 24.0838 1.25545 23.9356C1.53326 23.4945 1.81106 23.0478 2.10133 22.6096C2.38947 22.1749 2.69087 21.7489 3.00791 21.294C3.10414 21.1559 3.28996 21.1156 3.43629 21.1989C8.00446 23.7975 12.5745 23.8142 17.2373 21.2238C17.3836 21.1424 17.5684 21.1843 17.6638 21.3219L17.6641 21.3221Z" fill="#3B38EB"/>
</svg>
